<svg width="33" height="33" viewBox="0 0 33 33" fill="none" xmlns="http://www.w3.org/2000/svg">
<path d="M30.4007 31.13H24.3831L20.5214 32.959C20.4543 32.9906 20.3806 33.0044 20.307 32.9988C20.2334 32.9933 20.1624 32.9688 20.1004 32.9275C20.0383 32.8862 19.9874 32.8294 19.9521 32.7624C19.9168 32.6954 19.8983 32.6202 19.8984 32.5439V24.1076C19.8984 23.5885 20.0977 23.0907 20.4525 22.7236C20.8073 22.3566 21.2884 22.1504 21.7901 22.1504H30.4007C30.9024 22.1504 31.3835 22.3566 31.7383 22.7236C32.0931 23.0907 32.2924 23.5885 32.2924 24.1076V29.1694C32.2928 29.4267 32.2442 29.6816 32.1493 29.9194C32.0544 30.1573 31.9152 30.3734 31.7395 30.5555C31.5638 30.7377 31.3551 30.8821 31.1253 30.9807C30.8956 31.0793 30.6494 31.13 30.4007 31.13Z" fill="#ED044C"/>
<path d="M25.1336 4.04943H17.2863V0.944867C17.2863 0.694273 17.1901 0.453942 17.0188 0.276745C16.8475 0.0995481 16.6153 0 16.373 0H14.938C14.6958 0 14.4635 0.0995481 14.2922 0.276745C14.1209 0.453942 14.0247 0.694273 14.0247 0.944867V4.04943H6.17414C4.53692 4.05032 2.96701 4.72363 1.80932 5.92141C0.651631 7.11919 0.000866063 8.74348 1.86731e-06 10.4374V14.2439C-0.00191698 18.2587 1.47509 22.1234 4.13034 25.0512C6.78558 27.9789 10.4195 29.7497 14.2922 30.0029C14.4176 30.0117 14.5435 29.9937 14.662 29.95C14.7804 29.9063 14.8889 29.8378 14.9807 29.7489C15.0725 29.6599 15.1456 29.5524 15.1954 29.433C15.2453 29.3135 15.2709 29.1848 15.2706 29.0546V27.5699C15.2694 27.3292 15.1798 27.098 15.0199 26.9231C14.86 26.7483 14.6418 26.6429 14.4096 26.6284C12.7913 26.5135 11.2134 26.054 9.77491 25.2786C7.81169 24.2391 6.16438 22.6584 5.01495 20.7111C3.86553 18.7637 3.25872 16.5256 3.26156 14.2439V10.4408C3.26156 9.64066 3.56877 8.87332 4.11559 8.30756C4.66242 7.7418 5.40407 7.42395 6.1774 7.42395H25.1369C25.9093 7.42395 26.6502 7.74144 27.1964 8.30657C27.7426 8.8717 28.0494 9.63819 28.0494 10.4374V14.2439C28.0482 15.4109 27.984 16.5769 27.857 17.7365C27.8322 17.9769 27.897 18.218 28.0383 18.4105C28.1795 18.6031 28.3865 18.7326 28.617 18.7725L30.0357 19.0154C30.1573 19.0364 30.2818 19.0316 30.4016 19.0013C30.5213 18.971 30.6339 18.9158 30.7324 18.8391C30.8309 18.7624 30.9133 18.6658 30.9747 18.5552C31.036 18.4445 31.075 18.3221 31.0892 18.1954C31.2362 16.8837 31.3102 15.5644 31.311 14.2439V10.4408C31.311 8.74569 30.6602 7.12002 29.5017 5.92141C28.3432 4.7228 26.772 4.04943 25.1336 4.04943Z" fill="#121212"/>
<path d="M10.4374 17.5477C11.8784 17.5477 13.0466 16.339 13.0466 14.8481C13.0466 13.3571 11.8784 12.1484 10.4374 12.1484C8.99633 12.1484 7.82812 13.3571 7.82812 14.8481C7.82812 16.339 8.99633 17.5477 10.4374 17.5477Z" fill="#121212"/>
<path d="M20.8749 17.5477C22.3159 17.5477 23.4841 16.339 23.4841 14.8481C23.4841 13.3571 22.3159 12.1484 20.8749 12.1484C19.4338 12.1484 18.2656 13.3571 18.2656 14.8481C18.2656 16.339 19.4338 17.5477 20.8749 17.5477Z" fill="#121212"/>
</svg>
