<svg width="32" height="34" viewBox="0 0 32 34" fill="none" xmlns="http://www.w3.org/2000/svg">
<path d="M25.4055 4.16325H17.471V0.971424C17.471 0.713787 17.3738 0.466701 17.2007 0.284523C17.0276 0.102346 16.7928 0 16.548 0H15.0976C14.8528 0 14.6181 0.102346 14.445 0.284523C14.2719 0.466701 14.1746 0.713787 14.1746 0.971424V4.16325H6.24342C4.58757 4.16325 2.99953 4.85555 1.82866 6.08785C0.657789 7.32014 1.88727e-06 8.9915 1.88727e-06 10.7342V14.6442C-0.00193747 18.7719 1.49086 22.7452 4.17448 25.7553C6.8581 28.7653 10.5308 30.5858 14.4449 30.8462C14.5717 30.8552 14.6989 30.8367 14.8187 30.7918C14.9384 30.7469 15.048 30.6765 15.1408 30.585C15.2335 30.4936 15.3074 30.383 15.3579 30.2602C15.4083 30.1375 15.4341 30.0051 15.4338 29.8713V28.3448C15.4326 28.0973 15.342 27.8596 15.1804 27.6799C15.0188 27.5001 14.7983 27.3918 14.5636 27.3768C12.928 27.2588 11.3333 26.7863 9.87938 25.9891C7.89518 24.9204 6.23026 23.2952 5.06855 21.2932C3.90684 19.2911 3.29355 16.9901 3.29642 14.6442V10.7342C3.29642 9.91164 3.60691 9.12273 4.15958 8.54106C4.71225 7.9594 5.46183 7.63262 6.24342 7.63262H25.4022C26.1838 7.63262 26.9334 7.9594 27.4861 8.54106C28.0387 9.12273 28.3492 9.91164 28.3492 10.7342V14.6442C28.348 15.844 28.2831 17.0428 28.1547 18.235C28.1289 18.4819 28.1942 18.7298 28.3372 18.9274C28.4802 19.125 28.6898 19.2572 28.9228 19.2966L30.3535 19.5499C30.4765 19.5715 30.6025 19.5665 30.7238 19.5354C30.845 19.5043 30.959 19.4476 31.0588 19.3688C31.1586 19.29 31.2423 19.1907 31.3046 19.0769C31.3669 18.9632 31.4067 18.8373 31.4215 18.7069C31.57 17.3583 31.6449 16.0018 31.6456 14.6442V10.7308C31.6448 8.98924 30.9871 7.31929 29.817 6.08784C28.6469 4.85639 27.0602 4.16417 25.4055 4.16325Z" fill="#121212"/>
<path d="M10.5473 18.0412C12.0037 18.0412 13.1844 16.7986 13.1844 15.2657C13.1844 13.7329 12.0037 12.4902 10.5473 12.4902C9.09084 12.4902 7.91016 13.7329 7.91016 15.2657C7.91016 16.7986 9.09084 18.0412 10.5473 18.0412Z" fill="#121212"/>
<path d="M21.0981 18.0412C22.5545 18.0412 23.7352 16.7986 23.7352 15.2657C23.7352 13.7329 22.5545 12.4902 21.0981 12.4902C19.6416 12.4902 18.4609 13.7329 18.4609 15.2657C18.4609 16.7986 19.6416 18.0412 21.0981 18.0412Z" fill="#121212"/>
<path d="M27.7601 22.8984H26.3097C25.8 22.8984 25.3867 23.3334 25.3867 23.8699V33.029C25.3867 33.5655 25.8 34.0004 26.3097 34.0004H27.7601C28.2699 34.0004 28.6831 33.5655 28.6831 33.029V23.8699C28.6831 23.3334 28.2699 22.8984 27.7601 22.8984Z" fill="#ED044C"/>
<path d="M21.1625 26.0205H19.7121C19.2023 26.0205 18.7891 26.4554 18.7891 26.9919V30.6001C18.7891 31.1366 19.2023 31.5715 19.7121 31.5715H21.1625C21.6722 31.5715 22.0855 31.1366 22.0855 30.6001V26.9919C22.0855 26.4554 21.6722 26.0205 21.1625 26.0205Z" fill="#ED044C"/>
</svg>
