<svg width="45" height="45" viewBox="0 0 45 45" fill="none" xmlns="http://www.w3.org/2000/svg">
<circle cx="22.5" cy="22.5" r="22.5" fill="#EFF5FF"/>
<circle cx="22.5" cy="22.5" r="11.5" fill="white"/>
<path fill-rule="evenodd" clip-rule="evenodd" d="M20.1177 31.5956C20.3471 32.0256 20.5768 32.4131 20.7964 32.7564C18.4633 32.2317 16.4387 30.8916 15.0378 29.0511C15.9624 28.5304 17.1466 27.9907 18.5702 27.5957C18.9748 29.1827 19.5457 30.5231 20.1177 31.5956ZM21.8824 30.6544C21.3855 29.7228 20.8875 28.5593 20.5287 27.1808C21.3011 27.0661 22.1256 27 23.0001 27C23.8745 27 24.6991 27.0661 25.4713 27.1807C25.1125 28.5593 24.6145 29.7228 24.1176 30.6544C23.7192 31.4015 23.3223 31.9979 23 32.4343C22.6777 31.9979 22.2808 31.4015 21.8824 30.6544ZM20 23C20 23.7788 20.0524 24.518 20.1448 25.2159C21.0359 25.0792 21.9885 25 23.0001 25C24.0116 25 24.9643 25.0791 25.8552 25.2159C25.9476 24.5179 26 23.7788 26 23C26 22.2212 25.9476 21.4821 25.8552 20.7841C24.9643 20.9208 24.0116 21 23.0001 21C21.9885 21 21.0359 20.9208 20.1448 20.7841C20.0524 21.482 20 22.2212 20 23ZM18.1825 20.3717C18.0664 21.1971 18 22.0739 18 23C18 23.9261 18.0664 24.8029 18.1825 25.6283C16.4845 26.0841 15.0784 26.7269 13.991 27.3455C13.356 26.0315 13 24.5573 13 23C13 21.4427 13.356 19.9686 13.991 18.6545C15.0783 19.273 16.4844 19.9158 18.1825 20.3717ZM20.5287 18.8193C21.3011 18.9339 22.1256 19 23.0001 19C23.8745 19 24.6991 18.9339 25.4713 18.8193C25.1125 17.4407 24.6145 16.2772 24.1176 15.3456C23.7192 14.5986 23.3223 14.0021 23 13.5658C22.6777 14.0021 22.2808 14.5986 21.8824 15.3456C21.3855 16.2772 20.8875 17.4407 20.5287 18.8193ZM27.8175 20.3719C27.9336 21.1972 28 22.074 28 23C28 23.9261 27.9336 24.8028 27.8175 25.6281C29.5155 26.0841 30.9216 26.7269 32.0091 27.3455C32.644 26.0313 33 24.5572 33 23C33 21.4428 32.644 19.9686 32.0091 18.6546C30.9217 19.273 29.5156 19.9159 27.8175 20.3719ZM30.9621 16.949C30.0375 17.4697 28.8533 18.0094 27.4299 18.4044C27.0252 16.8174 26.4544 15.4769 25.8824 14.4044C25.6529 13.9744 25.4232 13.587 25.2036 13.2436C27.5368 13.7683 29.5613 15.1085 30.9621 16.949ZM18.5702 18.4043C17.1467 18.0093 15.9625 17.4697 15.0379 16.949C16.4387 15.1085 18.4633 13.7683 20.7963 13.2436C20.5768 13.587 20.3471 13.9743 20.1176 14.4044C19.5457 15.4769 18.9748 16.8173 18.5702 18.4043ZM27.4299 27.5956C27.0252 29.1827 26.4544 30.5231 25.8824 31.5956C25.6529 32.0256 25.4232 32.4131 25.2036 32.7564C27.5368 32.2317 29.5613 30.8915 30.9623 29.0509C30.0376 28.5303 28.8535 27.9907 27.4299 27.5956ZM23 35C29.6275 35 35 29.6275 35 23C35 16.3726 29.6275 11 23 11C16.3726 11 11 16.3726 11 23C11 29.6275 16.3726 35 23 35Z" fill="#014FED"/>
</svg>
