<svg width="18" height="22" viewBox="0 0 18 22" fill="none" xmlns="http://www.w3.org/2000/svg">
<path d="M13.8571 5.16667H13.3571C13.3571 7.44919 11.4254 9.33333 9 9.33333V9.83333V10.3333C11.9396 10.3333 14.3571 8.0388 14.3571 5.16667H13.8571ZM9 9.83333V9.33333C6.57458 9.33333 4.64286 7.44919 4.64286 5.16667H4.14286H3.64286C3.64286 8.0388 6.06037 10.3333 9 10.3333V9.83333ZM4.14286 5.16667H4.64286C4.64286 2.88414 6.57458 1 9 1V0.5V0C6.06037 0 3.64286 2.29453 3.64286 5.16667H4.14286ZM9 0.5V1C11.4254 1 13.3571 2.88414 13.3571 5.16667H13.8571H14.3571C14.3571 2.29453 11.9396 0 9 0V0.5ZM17.5 17.4167H17C17 18.2423 16.2867 19.1362 14.7939 19.8533C13.337 20.5532 11.2891 21 9 21V21.5V22C11.4053 22 13.6074 21.5327 15.2269 20.7547C16.8105 19.994 18 18.8462 18 17.4167H17.5ZM9 21.5V21C6.71088 21 4.66302 20.5532 3.2061 19.8533C1.71328 19.1362 1 18.2423 1 17.4167H0.5H0C0 18.8462 1.18951 19.994 2.77308 20.7547C4.39255 21.5327 6.5947 22 9 22V21.5ZM0.5 17.4167H1C1 16.5911 1.71328 15.6971 3.2061 14.98C4.66302 14.2801 6.71088 13.8333 9 13.8333V13.3333V12.8333C6.5947 12.8333 4.39255 13.3006 2.77308 14.0786C1.18951 14.8394 0 15.9871 0 17.4167H0.5ZM9 13.3333V13.8333C11.2891 13.8333 13.337 14.2801 14.7939 14.98C16.2867 15.6971 17 16.5911 17 17.4167H17.5H18C18 15.9871 16.8105 14.8394 15.2269 14.0786C13.6074 13.3006 11.4053 12.8333 9 12.8333V13.3333Z" fill="#A3AED0"/>
</svg>
