<svg width="136" height="40" viewBox="0 0 136 40" fill="none" xmlns="http://www.w3.org/2000/svg">
<path fill-rule="evenodd" clip-rule="evenodd" d="M29.8367 13.1393C29.7851 13.1965 29.7576 13.2714 29.7598 13.3485C29.7621 13.4255 29.794 13.4986 29.8489 13.5527L43.8426 27.5464C43.8967 27.6013 43.9699 27.6332 44.0469 27.6355C44.1239 27.6378 44.1988 27.6103 44.2561 27.5587C45.3092 26.603 46.1505 25.4373 46.7257 24.1367C47.3009 22.8361 47.5972 21.4294 47.5956 20.0073C47.5956 14.3694 43.026 9.7998 37.3888 9.7998C34.3954 9.7998 31.704 11.0877 29.8367 13.1393ZM28.0877 15.7954C28.0628 15.8511 28.0554 15.9131 28.0666 15.9731C28.0778 16.0331 28.107 16.0883 28.1503 16.1313L41.2641 29.2451C41.3525 29.3335 41.4864 29.3593 41.6 29.3076C41.9033 29.1703 42.1984 29.0186 42.484 28.8534C42.5235 28.8303 42.5572 28.7985 42.5823 28.7602C42.6075 28.722 42.6235 28.6785 42.6291 28.6331C42.6347 28.5877 42.6297 28.5416 42.6146 28.4984C42.5994 28.4553 42.5745 28.4162 42.5418 28.3842L29.0112 14.8536C28.9792 14.8208 28.9401 14.7959 28.8969 14.7808C28.8537 14.7656 28.8076 14.7607 28.7622 14.7663C28.7168 14.7719 28.6733 14.7879 28.6351 14.813C28.5969 14.8382 28.565 14.8719 28.542 14.9114C28.3767 15.197 28.2251 15.4921 28.0877 15.7954ZM27.2921 19.5503C27.2617 19.5201 27.238 19.4837 27.2228 19.4436C27.2075 19.4035 27.201 19.3606 27.2037 19.3178C27.2309 18.9118 27.2819 18.5126 27.3547 18.121C27.3649 18.0681 27.3894 18.0191 27.4256 17.9793C27.4618 17.9395 27.5082 17.9104 27.5598 17.8952C27.6114 17.8801 27.6662 17.8794 27.7182 17.8933C27.7702 17.9072 27.8173 17.9352 27.8545 17.9741L39.4213 29.5409C39.4602 29.578 39.4881 29.6252 39.502 29.6771C39.516 29.7291 39.5153 29.7839 39.5001 29.8355C39.4849 29.8872 39.4559 29.9336 39.416 29.9698C39.3762 30.006 39.3272 30.0305 39.2744 30.0407C38.8788 30.1146 38.4792 30.165 38.0776 30.1916C38.0348 30.1943 37.9919 30.1878 37.9518 30.1726C37.9117 30.1573 37.8753 30.1337 37.845 30.1032L27.2914 19.5496L27.2921 19.5503ZM28.002 22.3988C27.7912 22.188 27.4512 22.3696 27.5281 22.6572C27.9941 24.3848 28.9052 25.9598 30.1704 27.225C31.4356 28.4902 33.0106 29.4013 34.7381 29.8673C35.0258 29.9441 35.2073 29.6041 34.9965 29.3933L28.002 22.3988ZM68.326 15.4173C68.5004 15.417 68.673 15.3824 68.834 15.3154C68.995 15.2484 69.1412 15.1503 69.2643 15.0268C69.3873 14.9033 69.4849 14.7568 69.5513 14.5955C69.6177 14.4343 69.6517 14.2616 69.6514 14.0872C69.6514 13.3528 69.0584 12.7578 68.326 12.7578C67.9741 12.7585 67.6369 12.899 67.3885 13.1483C67.1401 13.3976 67.0008 13.7353 67.0014 14.0872C67.0014 14.8216 67.595 15.4173 68.326 15.4173ZM56.9795 27.0113V12.7592H59.3337V24.9271H65.6815V27.012L56.9795 27.0113ZM73.7354 21.1952V27.0113H71.4574V16.9106H73.7069V18.6418L73.7354 18.6228C73.9639 18.0808 74.3325 17.628 74.8411 17.2642C75.3491 16.8942 75.9971 16.7093 76.7852 16.7093C77.4843 16.7093 78.1194 16.8657 78.6913 17.1785C79.2632 17.4845 79.7208 17.9333 80.0642 18.5269C80.4069 19.1199 80.5783 19.8475 80.5783 20.7084V27.012H78.301V21.0239C78.301 20.2582 78.0976 19.6782 77.691 19.2831C77.2905 18.8812 76.7533 18.6799 76.0801 18.6799C75.6476 18.6799 75.2539 18.769 74.8982 18.9478C74.5388 19.1299 74.2431 19.4168 74.0503 19.7706C73.8402 20.1406 73.7354 20.6159 73.7354 21.1959V21.1952ZM94.3605 26.8392C94.8821 27.0623 95.4791 27.1738 96.1523 27.1738C96.7052 27.1738 97.1784 27.1038 97.5728 26.9637C97.9666 26.8168 98.2909 26.6223 98.5446 26.3802C98.8057 26.1375 99.0117 25.873 99.1647 25.586H99.2028V27.0113H101.385V20.0576C101.385 19.5666 101.29 19.1172 101.099 18.7085C100.909 18.3005 100.632 17.9469 100.27 17.647C99.9141 17.3478 99.4823 17.118 98.9736 16.9582C98.4657 16.7922 97.8938 16.7093 97.258 16.7093C96.3876 16.7093 95.6348 16.8589 94.999 17.1588C94.37 17.4525 93.8777 17.8476 93.5221 18.3454C93.1681 18.8378 92.966 19.4231 92.9407 20.029H95.1425C95.1677 19.7353 95.2697 19.4742 95.4472 19.2443C95.6253 19.0152 95.8667 18.8363 96.172 18.7085C96.4767 18.5745 96.8289 18.5079 97.2294 18.5079C97.63 18.5079 97.97 18.5745 98.2494 18.7085C98.535 18.8424 98.7547 19.0247 98.907 19.2538C99.0593 19.4837 99.1362 19.7516 99.1362 20.0576V20.1344C99.1362 20.3636 99.0566 20.5329 98.8975 20.641C98.7452 20.7498 98.4847 20.8294 98.1162 20.8804C97.7537 20.9314 97.258 20.9919 96.629 21.062C96.1142 21.1191 95.6192 21.2054 95.1425 21.3204C94.6935 21.4242 94.2628 21.5952 93.8648 21.8276C93.5022 22.0453 93.2006 22.3513 92.9883 22.7171C92.772 23.087 92.6646 23.5616 92.6646 24.1424C92.6646 24.8122 92.8169 25.3732 93.1216 25.826C93.4298 26.2749 93.8596 26.6259 94.3605 26.8392ZM98.0495 25.146C97.681 25.3432 97.2267 25.4425 96.6861 25.4425C96.1401 25.4425 95.7049 25.3276 95.3805 25.0984C95.0562 24.8625 94.8943 24.5408 94.8943 24.1322C94.8943 23.8132 94.9834 23.5548 95.1616 23.357C95.3458 23.1598 95.5872 23.0034 95.8858 22.8884C96.1989 22.77 96.5252 22.6897 96.8575 22.6491C97.1118 22.611 97.36 22.5729 97.6014 22.5348L98.278 22.4104C98.4874 22.3655 98.6656 22.3206 98.8118 22.2764C98.9641 22.2316 99.0756 22.184 99.145 22.133V23.2618C99.1486 23.6431 99.0535 24.0188 98.8689 24.3525C98.6908 24.6775 98.4181 24.942 98.0495 25.146ZM103.373 27.0113V16.9106H105.564V18.5745H105.593C105.778 18.0006 106.067 17.564 106.46 17.2642C106.861 16.9582 107.385 16.8052 108.033 16.8052C108.192 16.8052 108.335 16.812 108.462 16.8242C108.596 16.831 108.706 16.8371 108.796 16.8432V18.9002C108.429 18.8498 108.06 18.8241 107.69 18.8234C107.33 18.8197 106.976 18.9087 106.66 19.0818C106.35 19.2538 106.101 19.519 105.917 19.876C105.74 20.2262 105.651 20.6696 105.651 21.2054V27.0126H103.373V27.0113ZM67.183 27.0113V16.9106H69.4603V27.012H67.1823L67.183 27.0113ZM84.3672 26.5625C85.0982 27.0147 85.9652 27.2411 86.9696 27.2411C87.7448 27.2411 88.45 27.101 89.0851 26.8202C89.727 26.5332 90.2608 26.1409 90.6865 25.6438C91.1094 25.1455 91.3951 24.5455 91.5154 23.903H89.3714C89.2755 24.2022 89.1198 24.4674 88.9042 24.6966C88.6825 24.928 88.4125 25.1077 88.1133 25.2229C87.7951 25.35 87.4266 25.414 87.0077 25.414C86.4419 25.414 85.9557 25.2861 85.5491 25.0311C85.1472 24.7741 84.8293 24.4051 84.6345 23.9696C84.4441 23.5528 84.34 23.0809 84.3224 22.5539H91.6494V21.9419C91.6494 21.1633 91.5344 20.4554 91.306 19.8176C91.0775 19.1736 90.7531 18.6187 90.3335 18.1529C89.9155 17.6819 89.398 17.3096 88.8185 17.0629C88.2337 16.8079 87.5823 16.68 86.8642 16.68C85.9306 16.68 85.1044 16.9065 84.3863 17.3594C83.6682 17.8122 83.1058 18.4372 82.6992 19.2341C82.2926 20.0311 82.0892 20.9436 82.0892 21.9704C82.0892 22.9904 82.2864 23.8996 82.6802 24.6966C83.0547 25.4654 83.6397 26.1129 84.3672 26.5625ZM89.1612 19.8754C88.9679 19.4598 88.6564 19.1105 88.2657 18.871C87.8781 18.635 87.4204 18.5174 86.8928 18.5174C86.3719 18.5174 85.9176 18.635 85.53 18.871C85.1492 19.107 84.85 19.4415 84.6345 19.8754C84.4801 20.1895 84.3829 20.5465 84.3421 20.9464H89.4536C89.4208 20.5748 89.3217 20.2121 89.1612 19.8754Z" fill="#425466"/>
</svg>
