<svg width="13" height="16" viewBox="0 0 13 16" fill="none" xmlns="http://www.w3.org/2000/svg">
<path d="M8.80778 0.5V3.3125C8.80778 3.83027 9.22105 4.25 9.73084 4.25H12.5M3.73098 4.25H5.57709M3.73098 7.0625H9.26931M3.73098 9.875H9.26931M11.1154 1.90625C10.7046 1.53292 10.2783 1.09014 10.0092 0.802561C9.83009 0.611199 9.58266 0.5 9.32271 0.5H2.34618C1.32661 0.5 0.500078 1.33946 0.500071 2.37499L0.5 13.625C0.499993 14.6605 1.32652 15.5 2.3461 15.5L10.6536 15.5C11.6732 15.5 12.4997 14.6606 12.4997 13.625L12.5 3.68581C12.5 3.44609 12.41 3.21565 12.2461 3.04307C11.9432 2.72394 11.4374 2.19884 11.1154 1.90625Z" stroke="#E91E63" stroke-linecap="round" stroke-linejoin="round"/>
</svg>
