<svg width="18" height="18" viewBox="0 0 18 18" fill="none" xmlns="http://www.w3.org/2000/svg">
<path d="M15.4974 14.0786C15.4974 14.0786 14.6284 14.9321 14.4154 15.1824C14.0685 15.5526 13.6598 15.7274 13.1239 15.7274C13.0724 15.7274 13.0175 15.7274 12.9659 15.7239C11.9458 15.6588 10.9978 15.2612 10.2868 14.9219C8.34274 13.9827 6.63566 12.6493 5.2171 10.9594C4.04584 9.55056 3.26271 8.24802 2.74406 6.84949C2.42463 5.99598 2.30784 5.33099 2.35936 4.70372C2.39371 4.30267 2.54828 3.97018 2.83336 3.68567L4.00462 2.51681C4.17292 2.35913 4.35153 2.27344 4.52671 2.27344C4.7431 2.27344 4.91827 2.40369 5.02818 2.51338C5.03162 2.51681 5.03505 2.52024 5.03849 2.52366C5.24801 2.71905 5.44723 2.92128 5.65675 3.13723C5.76322 3.24692 5.87314 3.35661 5.98305 3.46972L6.92074 4.4055C7.28483 4.76884 7.28483 5.10476 6.92074 5.46811C6.82114 5.56751 6.72496 5.66691 6.62535 5.76289C6.33683 6.05768 6.56348 5.83149 6.26466 6.09886C6.25779 6.10571 6.25092 6.10914 6.24748 6.116C5.95209 6.41078 6.00705 6.69871 6.06887 6.8941C6.07231 6.90438 6.07574 6.91466 6.07918 6.92495C6.32305 7.51452 6.66652 8.06982 7.18861 8.73137L7.19205 8.7348C8.14004 9.90024 9.13956 10.8086 10.2421 11.5044C10.3829 11.5935 10.5272 11.6655 10.6646 11.7341C10.7883 11.7958 10.905 11.8541 11.0046 11.9158C11.0184 11.9226 11.0321 11.9329 11.0459 11.9398C11.1626 11.998 11.2726 12.0254 11.3859 12.0254C11.671 12.0254 11.8496 11.8472 11.908 11.7889L12.5812 11.117C12.698 11.0005 12.8835 10.86 13.0999 10.86C13.3129 10.86 13.488 10.9936 13.5945 11.1102C13.5979 11.1136 13.5979 11.1136 13.6014 11.117L15.4939 13.0057C15.8477 13.3554 15.4974 14.0786 15.4974 14.0786Z" stroke="#ED044C" stroke-width="2" stroke-linecap="round" stroke-linejoin="round"/>
</svg>
