<svg width="136" height="40" viewBox="0 0 136 40" fill="none" xmlns="http://www.w3.org/2000/svg">
<path d="M55.0469 25.5411L55.9445 23.4603C56.977 24.1922 58.215 24.5779 59.4805 24.5619C60.4189 24.5619 61.0105 24.2015 61.0105 23.6507C60.9969 22.1139 55.3801 23.3175 55.3393 19.4687C55.3189 17.5171 57.0597 16.0143 59.5213 16.0143C60.9833 16.0143 62.4453 16.3747 63.4857 17.2043L62.6425 19.3191C61.6706 18.6793 60.5414 18.3193 59.3785 18.2787C58.6101 18.2787 58.1001 18.6391 58.1001 19.1015C58.1137 20.6043 63.7713 19.7815 63.8325 23.4535C63.8325 25.4527 62.1393 26.8535 59.7049 26.8535C57.9301 26.8535 56.2913 26.4319 55.0469 25.5343M89.4821 22.7191C89.2012 23.2161 88.7636 23.606 88.2377 23.828C87.7118 24.0501 87.1272 24.0917 86.5752 23.9465C86.0231 23.8013 85.5347 23.4773 85.1862 23.0252C84.8376 22.5731 84.6486 22.0184 84.6486 21.4475C84.6486 20.8767 84.8376 20.3219 85.1862 19.8698C85.5347 19.4178 86.0231 19.0938 86.5752 18.9486C87.1272 18.8033 87.7118 18.845 88.2377 19.067C88.7636 19.2891 89.2012 19.679 89.4821 20.1759L91.9573 18.8023C91.3717 17.7535 90.4547 16.9286 89.3499 16.4569C88.2452 15.9853 87.0151 15.8935 85.8526 16.196C84.6901 16.4986 83.6608 17.1783 82.9261 18.1287C82.1915 19.079 81.7929 20.2463 81.7929 21.4475C81.7929 22.6488 82.1915 23.816 82.9261 24.7664C83.6608 25.7168 84.6901 26.3965 85.8526 26.699C87.0151 27.0015 88.2452 26.9098 89.3499 26.4381C90.4547 25.9665 91.3717 25.1416 91.9573 24.0927L89.4821 22.7191ZM65.0769 11.5195H68.1709V26.6563H65.0769V11.5195ZM93.1677 11.5195V26.6631H96.2685V22.1207L99.9405 26.6631H103.912L99.2333 21.2707L103.565 16.2387H99.7705L96.2685 20.4207V11.5195H93.1677ZM77.3849 22.7395C77.1223 23.1408 76.7629 23.4695 76.3398 23.6953C75.9167 23.9211 75.4436 24.0367 74.9641 24.0315C74.277 24.0315 73.618 23.7586 73.1321 23.2727C72.6462 22.7868 72.3733 22.1279 72.3733 21.4407C72.3733 20.7536 72.6462 20.0946 73.1321 19.6088C73.618 19.1229 74.277 18.8499 74.9641 18.8499C76.0045 18.8499 76.9361 19.4279 77.3781 20.1827V22.7395H77.3849ZM77.3849 16.2319V17.4559C76.8749 16.6059 75.6169 16.0143 74.2977 16.0143C71.5777 16.0143 69.4357 18.4147 69.4357 21.4203C69.4357 24.4327 71.5777 26.8603 74.2977 26.8603C75.6169 26.8603 76.8749 26.2687 77.3781 25.4119V26.6359H80.4789V16.2319H77.3781H77.3849Z" fill="#425466"/>
<path d="M35.8978 22.7194C35.8978 23.0957 35.7863 23.4635 35.5774 23.7765C35.3685 24.0895 35.0716 24.3335 34.724 24.4778C34.3765 24.6221 33.994 24.6602 33.6249 24.5873C33.2557 24.5144 32.9165 24.3337 32.6499 24.0681C32.3834 23.8025 32.2015 23.4639 32.1273 23.095C32.053 22.7261 32.0898 22.3435 32.2328 21.9955C32.3759 21.6474 32.6189 21.3496 32.9311 21.1396C33.2433 20.9295 33.6108 20.8167 33.987 20.8154H35.8978V22.7194ZM36.8498 22.7194C36.8498 22.2126 37.0512 21.7266 37.4095 21.3683C37.7678 21.0099 38.2539 20.8086 38.7606 20.8086C39.2674 20.8086 39.7534 21.0099 40.1118 21.3683C40.4701 21.7266 40.6714 22.2126 40.6714 22.7194V27.493C40.6714 27.9998 40.4701 28.4858 40.1118 28.8441C39.7534 29.2025 39.2674 29.4038 38.7606 29.4038C38.2539 29.4038 37.7678 29.2025 37.4095 28.8441C37.0512 28.4858 36.8498 27.9998 36.8498 27.493V22.7262V22.7194Z" fill="#425466"/>
<path d="M38.7605 15.0629C38.3842 15.0615 38.0168 14.9487 37.7046 14.7387C37.3923 14.5287 37.1494 14.2308 37.0063 13.8828C36.8632 13.5348 36.8265 13.1522 36.9007 12.7833C36.9749 12.4144 37.1568 12.0758 37.4234 11.8102C37.6899 11.5446 38.0292 11.3639 38.3983 11.291C38.7675 11.2181 39.15 11.2562 39.4975 11.4005C39.845 11.5448 40.142 11.7888 40.3509 12.1018C40.5598 12.4147 40.6713 12.7826 40.6713 13.1589V15.0629H38.7673H38.7605ZM38.7605 16.0285C39.2673 16.0285 39.7533 16.2298 40.1116 16.5881C40.47 16.9465 40.6713 17.4325 40.6713 17.9393C40.6713 18.446 40.47 18.9321 40.1116 19.2904C39.7533 19.6488 39.2673 19.8501 38.7605 19.8501H33.9733C33.4665 19.8501 32.9805 19.6488 32.6222 19.2904C32.2638 18.9321 32.0625 18.446 32.0625 17.9393C32.0625 17.4325 32.2638 16.9465 32.6222 16.5881C32.9805 16.2298 33.4665 16.0285 33.9733 16.0285H38.7605Z" fill="#425466"/>
<path d="M46.4181 17.9392C46.4181 17.5629 46.5296 17.1951 46.7385 16.8821C46.9475 16.5692 47.2444 16.3251 47.5919 16.1808C47.9395 16.0365 48.3219 15.9984 48.6911 16.0713C49.0602 16.1442 49.3995 16.3249 49.6661 16.5905C49.9326 16.8561 50.1145 17.1947 50.1887 17.5636C50.2629 17.9325 50.2262 18.3151 50.0831 18.6631C49.9401 19.0112 49.6971 19.309 49.3849 19.519C49.0727 19.7291 48.7052 19.8419 48.3289 19.8432H46.4249V17.9392H46.4181ZM45.4661 17.9392C45.4661 18.446 45.2648 18.932 44.9065 19.2904C44.5481 19.6487 44.0621 19.85 43.5553 19.85C43.0486 19.85 42.5625 19.6487 42.2042 19.2904C41.8458 18.932 41.6445 18.446 41.6445 17.9392V13.152C41.6445 12.6452 41.8458 12.1592 42.2042 11.8009C42.5625 11.4425 43.0486 11.2412 43.5553 11.2412C44.0621 11.2412 44.5481 11.4425 44.9065 11.8009C45.2648 12.1592 45.4661 12.6452 45.4661 13.152V17.9392Z" fill="#425466"/>
<path d="M43.5553 25.589C43.9316 25.5904 44.2991 25.7032 44.6113 25.9132C44.9235 26.1232 45.1665 26.4211 45.3095 26.7691C45.4526 27.1171 45.4893 27.4997 45.4151 27.8686C45.3409 28.2375 45.159 28.5761 44.8925 28.8417C44.6259 29.1073 44.2866 29.288 43.9175 29.3609C43.5483 29.4338 43.1659 29.3957 42.8183 29.2514C42.4708 29.1071 42.1739 28.8631 41.9649 28.5501C41.756 28.2372 41.6445 27.8693 41.6445 27.493V25.589H43.5485H43.5553ZM43.5553 24.637C43.0486 24.637 42.5625 24.4357 42.2042 24.0774C41.8458 23.719 41.6445 23.233 41.6445 22.7262C41.6445 22.2195 41.8458 21.7334 42.2042 21.3751C42.5625 21.0167 43.0486 20.8154 43.5553 20.8154H48.3425C48.8484 20.8154 49.3336 21.0164 49.6913 21.3741C50.049 21.7318 50.2499 22.217 50.2499 22.7228C50.2499 23.2287 50.049 23.7139 49.6913 24.0716C49.3336 24.4293 48.8484 24.6302 48.3425 24.6302H43.5553V24.637Z" fill="#425466"/>
</svg>
