<svg width="136" height="40" viewBox="0 0 136 40" fill="none" xmlns="http://www.w3.org/2000/svg">
<path d="M43.792 17.4838C43.792 18.6398 42.84 19.5918 41.684 19.5918C40.528 19.5918 39.576 18.6398 39.576 17.4838C39.576 16.3278 40.528 15.3758 41.684 15.3758C42.84 15.3758 43.792 16.3278 43.792 17.4838ZM41.684 20.4078C40.528 20.4078 39.576 21.3598 39.576 22.5158C39.576 23.6718 40.528 24.6238 41.684 24.6238C42.84 24.6238 43.792 23.6718 43.792 22.5158C43.792 21.3598 42.84 20.4078 41.684 20.4078ZM54.4 19.9998C54.4 25.6438 49.844 30.1998 44.2 30.1998C38.556 30.1998 34 25.6438 34 19.9998C34 14.3558 38.556 9.7998 44.2 9.7998C49.844 9.7998 54.4 14.3558 54.4 19.9998ZM51.68 19.9998C51.68 15.8518 48.348 12.5198 44.2 12.5198C40.052 12.5198 36.72 15.8518 36.72 19.9998C36.72 24.1478 40.052 27.4798 44.2 27.4798C48.348 27.4798 51.68 24.1478 51.68 19.9998ZM46.716 20.4078C45.56 20.4078 44.608 21.3598 44.608 22.5158C44.608 23.6718 45.56 24.6238 46.716 24.6238C47.872 24.6238 48.824 23.6718 48.824 22.5158C48.824 21.3598 47.872 20.4078 46.716 20.4078ZM46.716 15.3758C45.56 15.3758 44.608 16.3278 44.608 17.4838C44.608 18.6398 45.56 19.5918 46.716 19.5918C47.872 19.5918 48.824 18.6398 48.824 17.4838C48.824 16.3278 47.872 15.3758 46.716 15.3758ZM81.804 13.8118C81.872 13.8118 81.94 13.8798 82.008 13.9478V16.1238C82.008 16.2598 81.872 16.3278 81.804 16.3278H78.2C78.064 16.3278 77.996 16.1918 77.996 16.1238V14.0158C77.996 13.8798 78.132 13.8118 78.2 13.8118H81.804ZM81.736 16.8718H74.8C74.732 16.8718 74.596 16.9398 74.596 17.0758L73.712 20.4758L73.644 20.6798L72.556 17.0758C72.556 17.0078 72.42 16.8718 72.352 16.8718H69.632C69.564 16.8718 69.428 16.9398 69.428 17.0758L68.408 20.4758L68.34 20.6798L68.272 20.4758L67.864 18.7758L67.456 17.0758C67.456 17.0078 67.32 16.8718 67.252 16.8718H61.812V13.9478C61.812 13.8798 61.676 13.7438 61.54 13.8118L58.14 14.8998C58.004 14.8998 57.936 14.9678 57.936 15.1038V16.9398H57.052C56.984 16.9398 56.848 17.0078 56.848 17.1438V19.7278C56.848 19.7958 56.916 19.9318 57.052 19.9318H57.936V23.1278C57.936 25.3718 59.16 26.3918 61.404 26.3918C62.356 26.3918 63.24 26.1878 63.852 25.8478V23.1278C63.852 22.9918 63.716 22.9238 63.648 22.9918C63.308 23.1278 62.968 23.1958 62.696 23.1958C62.084 23.1958 61.744 22.9238 61.744 22.2438V19.9318H63.716C63.784 19.9318 63.92 19.8638 63.92 19.7278V17.5518L66.504 26.1198C66.504 26.1878 66.64 26.3238 66.708 26.3238H69.564C69.632 26.3238 69.768 26.2558 69.768 26.1198L70.992 22.3118L71.604 24.2838L72.148 26.1198C72.148 26.1878 72.284 26.3238 72.352 26.3238H75.208C75.276 26.3238 75.412 26.2558 75.412 26.1198L77.996 17.5518V26.1198C77.996 26.1878 78.064 26.3238 78.2 26.3238H81.668C81.736 26.3238 81.872 26.2558 81.872 26.1198V17.0758C81.872 17.0078 81.804 16.8718 81.736 16.8718ZM86.292 13.8118H82.824C82.756 13.8118 82.62 13.8798 82.62 14.0158V26.0518C82.62 26.1198 82.688 26.2558 82.824 26.2558H86.292C86.36 26.2558 86.496 26.1878 86.496 26.0518V13.9478C86.496 13.8798 86.428 13.8118 86.292 13.8118ZM90.916 13.8118H87.312C87.244 13.8118 87.108 13.8798 87.108 14.0158V16.1238C87.108 16.1918 87.176 16.3278 87.312 16.3278H90.916C90.984 16.3278 91.12 16.2598 91.12 16.1238V13.9478C91.12 13.8798 91.052 13.8118 90.916 13.8118ZM90.848 16.8718H87.38C87.312 16.8718 87.176 16.9398 87.176 17.0758V25.9838C87.176 26.0518 87.244 26.1878 87.38 26.1878H90.848C90.916 26.1878 91.052 26.1198 91.052 25.9838V17.0758C91.052 17.0078 90.984 16.8718 90.848 16.8718ZM101.796 21.4958C101.796 24.0798 99.62 26.3238 96.56 26.3238C93.568 26.3238 91.392 24.0798 91.392 21.4958C91.392 18.9118 93.568 16.6678 96.628 16.6678C99.62 16.6678 101.796 18.9118 101.796 21.4958ZM98.124 21.5638C98.124 20.6118 97.444 19.8638 96.628 19.9318C95.744 19.9318 95.132 20.6798 95.132 21.5638C95.132 22.4478 95.812 23.1958 96.628 23.1958C97.512 23.1958 98.124 22.4478 98.124 21.5638Z" fill="#425466"/>
</svg>
